# File created by Blade
# Date/Time:  Fri Jan 16 19:49:56 2015
# Frame Rate: 120.000 fps
#------------------------------------------------------
:FULLY-SPECIFIED
:DEGREES
505
root 20.056523 35.127002 -12.538228 -104.895328 1.929174 -178.643471
Spine 71.294909 0.882322 -9.220770
Head -12.964683 3.531711 -0.226732
LeftShoulder -20.485515 21.536816 11.259783
LeftArm -59.023176 10.128674 -100.347036
LeftForeArm 21.899368 -0.000000 -1.003584
LeftHand -1.418444 -0.000000 -42.217286
LeftHandThumb1 -26.253704 0.000000 33.147579
RightShoulder -25.618031 -52.584707 -5.330346
RightArm -22.160001 -23.162723 84.306040
RightForeArm -36.350752 -0.000000 7.164174
RightHand 4.664632 -0.000000 48.986306
RightHandThumb1 -24.326973 -0.000000 -32.862282
LeftUpLeg -80.220589 6.097762 3.133559
LeftLeg -5.264213 -0.000000 0.000000
LeftFoot -7.177385 32.774349 -8.404272
LeftToeBase 27.125897 -0.000000 -0.000000
RightUpLeg -80.359605 -2.787426 -5.632983
RightLeg -4.632943 -0.000000 0.000000
RightFoot -6.689320 -19.306165 12.511118
RightToeBase 26.826125 -0.000000 -0.000000
506
root 20.064633 35.126286 -12.535603 -104.796942 1.899010 -178.632527
Spine 71.347577 0.890516 -9.208957
Head -12.873826 3.546721 -0.215112
LeftShoulder -20.495430 21.721194 11.257246
LeftArm -59.012394 10.096528 -100.176191
LeftForeArm 22.066013 -0.000000 -0.983800
LeftHand -1.500313 -0.000000 -42.209271
LeftHandThumb1 -26.253704 0.000000 33.147579
RightShoulder -25.660143 -52.766373 -5.314428
RightArm -22.142803 -23.073797 84.221795
RightForeArm -36.383541 -0.000000 7.097173
RightHand 4.675243 -0.000000 48.955201
RightHandThumb1 -24.326973 -0.000000 -32.862282
LeftUpLeg -80.320889 6.122603 3.140828
LeftLeg -5.275233 -0.000000 0.000000
LeftFoot -7.162690 32.768485 -8.418921
LeftToeBase 27.135529 -0.000000 -0.000000
RightUpLeg -80.447758 -2.775494 -5.656943
RightLeg -4.644089 -0.000000 0.000000
RightFoot -6.695780 -19.349281 12.444828
RightToeBase 26.910732 -0.000000 -0.000000
507
root 20.073285 35.125949 -12.533036 -104.692652 1.877593 -178.625559
Spine 71.397571 0.898649 -9.188313
Head -12.816986 3.495207 -0.294146
LeftShoulder -20.491851 21.788586 11.264161
LeftArm -59.113487 10.091921 -100.046429
LeftForeArm 22.162984 0.000000 -0.987029
LeftHand -1.477285 -0.000000 -42.253796
LeftHandThumb1 -26.253704 0.000000 33.147579
RightShoulder -25.735695 -52.909438 -5.282414
RightArm -22.137747 -22.982816 84.141122
RightForeArm -36.529974 -0.000000 7.045187
RightHand 4.684956 -0.000000 48.965163
RightHandThumb1 -24.326973 -0.000000 -32.862282
LeftUpLeg -80.428489 6.148487 3.128582
LeftLeg -5.285286 -0.000000 0.000000
LeftFoot -7.156707 32.749743 -8.440561
LeftToeBase 27.205446 -0.000000 -0.000000
RightUpLeg -80.540891 -2.763288 -5.694598
RightLeg -4.661062 -0.000000 0.000000
RightFoot -6.705953 -19.423079 12.446532
RightToeBase 26.930622 -0.000000 -0.000000
508
root 20.081312 35.125082 -12.530068 -104.584214 1.841872 -178.624300
Spine 71.427666 0.877729 -9.185307
Head -12.733488 3.561553 -0.359176
LeftShoulder -20.519152 21.881797 11.257522
LeftArm -59.198205 10.141270 -100.019248
LeftForeArm 22.119344 0.000000 -1.024348
LeftHand -1.500841 -0.000000 -42.266036
LeftHandThumb1 -26.253704 0.000000 33.147579
RightShoulder -25.649841 -52.907392 -5.378860
RightArm -22.363914 -23.056943 84.197332
RightForeArm -36.445431 0.000000 7.082248
RightHand 4.627196 -0.000000 49.002182
RightHandThumb1 -24.326973 -0.000000 -32.862282
LeftUpLeg -80.549837 6.162541 3.138132
LeftLeg -5.280763 -0.000000 0.000000
LeftFoot -7.165116 32.741506 -8.499214
LeftToeBase 27.153025 -0.000000 -0.000000
RightUpLeg -80.637019 -2.765412 -5.694815
RightLeg -4.680012 -0.000000 0.000000
RightFoot -6.701654 -19.461544 12.407569
RightToeBase 26.960908 -0.000000 -0.000000
509
root 20.090105 35.124187 -12.527774 -104.490040 1.803837 -178.622553
Spine 71.479292 0.857704 -9.174091
Head -12.682826 3.621087 -0.444956
LeftShoulder -20.558064 21.966626 11.226584
LeftArm -59.272013 10.174019 -99.921988
LeftForeArm 22.168426 0.000000 -1.046685
LeftHand -1.481294 -0.000000 -42.322836
LeftHandThumb1 -26.253704 0.000000 33.147579
RightShoulder -25.740159 -53.098265 -5.289193
RightArm -22.308544 -23.094833 84.125899
RightForeArm -36.570253 -0.000000 7.103371
RightHand 4.661943 -0.000000 48.991171
RightHandThumb1 -24.326973 -0.000000 -32.862282
LeftUpLeg -80.659319 6.179442 3.123862
LeftLeg -5.277360 -0.000000 0.000000
LeftFoot -7.137670 32.706409 -8.492800
LeftToeBase 27.157591 -0.000000 -0.000000
RightUpLeg -80.708576 -2.763696 -5.695065
RightLeg -4.713431 -0.000000 0.000000
RightFoot -6.720008 -19.495882 12.418170
RightToeBase 26.974191 -0.000000 -0.000000
510
root 20.098973 35.122887 -12.525245 -104.398992 1.775738 -178.620810
Spine 71.516633 0.862580 -9.137139
Head -12.636540 3.556525 -0.516152
LeftShoulder -20.527971 22.038048 11.245130
LeftArm -59.352232 10.157362 -99.821589
LeftForeArm 22.182253 -0.000000 -1.043534
LeftHand -1.507816 0.000000 -42.308955
LeftHandThumb1 -26.253704 0.000000 33.147579
RightShoulder -25.802691 -53.171917 -5.269357
RightArm -22.358477 -23.129559 84.122630
RightForeArm -36.693571 0.000000 7.085653
RightHand 4.633610 -0.000000 49.035303
RightHandThumb1 -24.326973 -0.000000 -32.862282
LeftUpLeg -80.758992 6.195990 3.116816
LeftLeg -5.283278 -0.000000 0.000000
LeftFoot -7.127397 32.694128 -8.499850
LeftToeBase 27.147862 -0.000000 -0.000000
RightUpLeg -80.788937 -2.764103 -5.656572
RightLeg -4.735867 -0.000000 0.000000
RightFoot -6.710423 -19.489469 12.441113
RightToeBase 26.882457 -0.000000 -0.000000
511
root 20.108969 35.121530 -12.521837 -104.317081 1.737852 -178.615981
Spine 71.551228 0.863312 -9.143577
Head -12.591732 3.622721 -0.546434
LeftShoulder -20.584980 22.180088 11.229241
LeftArm -59.367269 10.195130 -99.768438
LeftForeArm 22.189281 -0.000000 -1.075143
LeftHand -1.494203 0.000000 -42.295920
LeftHandThumb1 -26.253704 0.000000 33.147579
RightShoulder -25.813612 -53.266423 -5.259894
RightArm -22.346878 -23.193830 84.094496
RightForeArm -36.778737 -0.000000 6.989337
RightHand 4.645482 -0.000000 48.988179
RightHandThumb1 -24.326973 -0.000000 -32.862282
LeftUpLeg -80.863941 6.217145 3.093362
LeftLeg -5.270899 -0.000000 0.000000
LeftFoot -7.122535 32.659374 -8.508754
LeftToeBase 27.173512 -0.000000 -0.000000
RightUpLeg -80.856419 -2.759368 -5.633857
RightLeg -4.759626 -0.000000 0.000000
RightFoot -6.720651 -19.499061 12.440310
RightToeBase 26.857289 -0.000000 -0.000000
512
root 20.117909 35.119739 -12.518367 -104.250093 1.702433 -178.614579
Spine 71.587400 0.860066 -9.155668
Head -12.520138 3.693716 -0.584775
LeftShoulder -20.623096 22.324337 11.214006
LeftArm -59.403569 10.209094 -99.721312
LeftForeArm 22.176863 -0.000000 -1.042962
LeftHand -1.531922 -0.000000 -42.229072
LeftHandThumb1 -26.253704 0.000000 33.147579
RightShoulder -25.747554 -53.311392 -5.320435
RightArm -22.421432 -23.243055 84.104756
RightForeArm -36.851272 -0.000000 6.998602
RightHand 4.614923 -0.000000 49.016633
RightHandThumb1 -24.326973 -0.000000 -32.862282
LeftUpLeg -80.947078 6.233058 3.067386
LeftLeg -5.271378 -0.000000 0.000000
LeftFoot -7.108053 32.624711 -8.502479
LeftToeBase 27.167692 -0.000000 -0.000000
RightUpLeg -80.912684 -2.760072 -5.601310
RightLeg -4.776778 -0.000000 0.000000
RightFoot -6.744097 -19.507717 12.363912
RightToeBase 27.020801 -0.000000 -0.000000
